<?xml version="1.0" encoding="utf-8"?>
<!-- Generator: Adobe Illustrator 26.0.0, SVG Export Plug-In . SVG Version: 6.00 Build 0)  -->
<svg version="1.1" id="Camada_1" xmlns="http://www.w3.org/2000/svg" xmlns:xlink="http://www.w3.org/1999/xlink" x="0px" y="0px"
	 viewBox="0 0 305 305" style="enable-background:new 0 0 305 305;" xml:space="preserve">
<style type="text/css">
	.st0{fill:#262626;}
	.st1{fill:#1A1A1A;}
	.st2{fill:url(#SVGID_1_);}
	.st3{fill:none;}
	.st4{fill:url(#SVGID_00000112624301374373354650000014110492391770217634_);}
	.st5{fill:url(#SVGID_00000105391424821286239490000018118466023478181011_);}
	.st6{fill:url(#SVGID_00000102542595880925735120000013318111027538684032_);}
	.st7{fill:url(#SVGID_00000109708097648562772750000002034040378121560235_);}
	.st8{fill:url(#SVGID_00000106849050951161008610000018005733264016386944_);}
	.st9{fill:url(#SVGID_00000067198079039952834990000013401557281456680372_);}
	.st10{fill:url(#SVGID_00000165953244700079276830000007393362005052344488_);}
	.st11{fill:url(#SVGID_00000096031761988177017660000011248360598703042959_);}
	.st12{fill:url(#SVGID_00000112591382031784969120000000100317511458923438_);}
	.st13{fill:url(#SVGID_00000132787577765089139330000015864553380351935646_);}
	.st14{fill:url(#SVGID_00000008844314088286324270000003055193577228891820_);}
</style>
<g>
	<path class="st0" d="M178.4,265.8c-8.6-0.9-17-2.5-25.1-4.5C161.3,263.7,169.7,265.2,178.4,265.8z"/>
	<path class="st1" d="M152.5,2.5c-82.8,0-150,67.2-150,150s67.2,150,150,150s150-67.2,150-150S235.3,2.5,152.5,2.5z M250.8,246.5
		c-18.4,12.4-40.6,19.6-64.4,19.6c-2.7,0-5.4-0.1-8-0.3c-8.7-0.6-17.1-2.1-25.1-4.5c-47.7-14.2-82.5-58.5-82.5-110.8
		c0-63.9,51.8-115.6,115.6-115.6c16.4,0,31.9,3.4,46,9.5c41,17.8,69.6,58.6,69.6,106.1C302,190.5,281.7,225.8,250.8,246.5z"/>
	<linearGradient id="SVGID_1_" gradientUnits="userSpaceOnUse" x1="-89.5649" y1="401.6956" x2="513.7151" y2="-149.272">
		<stop  offset="0.1856" style="stop-color:#19EBCE"/>
		<stop  offset="0.2654" style="stop-color:#21DCD0"/>
		<stop  offset="0.4196" style="stop-color:#36B4D4"/>
		<stop  offset="0.6329" style="stop-color:#5873DB"/>
		<stop  offset="0.8947" style="stop-color:#871BE5"/>
		<stop  offset="0.9103" style="stop-color:#8A15E6"/>
	</linearGradient>
	<path class="st2" d="M178.9,148.1c-3.7,7.1,1,19.6,22.4,31.9c11.6,6.7,26.2,14.6,28.3,29.9c15.3-4.1,38-8.9,32.2-22.5
		c-7.2-31.2-23.9-58.9-36.2-88.4c-0.9-2.1-1.6-4.5-2-6.7c-1.5-7.9,1.4-15.4,2.1-23.5c-3,0.4-16.1,0.4-23.5,9.6
		c-0.2,0.3-1.7-9.1,3.3-19.1c-8.3-2.5-73.1,25.8-94.8,81.9c-0.5-12.9,4.7-35,22.5-59.6c27.5-38.1,72.2-43.1,101.1-36.4
		c-0.7-0.3-1.3-0.6-1.8-0.8c-14.1-6.1-29.7-9.5-46-9.5c-63.9,0-115.6,51.8-115.6,115.6c0,52.4,34.8,96.6,82.5,110.8
		c8.1,2.1,16.6,3.6,25.1,4.5c2.6,0.2,5.3,0.3,8,0.3c23.8,0,46-7.2,64.4-19.6c0.3-0.2,0.6-0.5,1-0.7
		C179,235.4,145.3,211.6,178.9,148.1z M215.1,111.5c0.1,0.1,0.1,0.2,0.2,0.3c0-0.1,0.1-0.1,0.1-0.2c6.3,12.9,12.1,24.7,17.9,36.5
		c-2.1-0.8-4.1-1.7-6-2.7C212.7,137.6,206.6,122.3,215.1,111.5z"/>
	<g>
		<path class="st3" d="M227.3,145.5c1.9,1,3.8,1.9,6,2.7c-5.8-11.8-11.6-23.6-17.9-36.5c0,0.1-0.1,0.1-0.1,0.2
			c-0.1-0.1-0.1-0.2-0.2-0.3C206.6,122.3,212.7,137.6,227.3,145.5z"/>
		<path class="st3" d="M201.3,180.1c11.6,6.7,26.2,14.6,28.3,29.9c15.3-4.1,38-8.9,32.2-22.5c-7.2-31.2-23.9-58.9-36.2-88.4
			c-0.9-2.1-1.6-4.5-2-6.7c-1.5-7.9,1.4-15.4,2.1-23.5c-3,0.4-16.1,0.4-23.5,9.6c-0.2,0.3-1.7-9.1,3.3-19.1
			c-8.3-2.5-73.1,25.8-94.8,81.9c-0.5-12.9,4.7-35,22.5-59.6c27.5-38.1,72.2-43.1,101.1-36.4c-0.7-0.3-1.3-0.6-1.8-0.8
			c-14.1-6.1-29.7-9.5-46-9.5c-63.9,0-115.6,51.8-115.6,115.6c0,52.4,34.8,96.6,82.5,110.8c8.1,2.1,16.6,3.6,25.1,4.5
			c2.6,0.2,5.3,0.3,8,0.3c23.8,0,46-7.2,64.4-19.6c0.3-0.2,0.6-0.5,1-0.7c-72.7-10.4-106.5-34.2-72.9-97.7
			C175.1,155.2,179.8,167.7,201.3,180.1z M215.1,111.5c0.1,0.1,0.1,0.2,0.2,0.3c0-0.1,0.1-0.1,0.1-0.2c6.3,12.9,12.1,24.7,17.9,36.5
			c-2.1-0.8-4.1-1.7-6-2.7C212.7,137.6,206.6,122.3,215.1,111.5z"/>
		<path class="st3" d="M227.3,145.5c1.9,1,3.8,1.9,6,2.7c-5.8-11.8-11.6-23.6-17.9-36.5c0,0.1-0.1,0.1-0.1,0.2
			c-0.1-0.1-0.1-0.2-0.2-0.3C206.6,122.3,212.7,137.6,227.3,145.5z"/>
	</g>
	<g>
		
			<linearGradient id="SVGID_00000001623181510007339210000013555666757039868570_" gradientUnits="userSpaceOnUse" x1="26.3385" y1="289.0364" x2="146.3398" y2="1.5916">
			<stop  offset="0.1856" style="stop-color:#19EBCE"/>
			<stop  offset="0.2654" style="stop-color:#21DCD0"/>
			<stop  offset="0.4196" style="stop-color:#36B4D4"/>
			<stop  offset="0.6329" style="stop-color:#5873DB"/>
			<stop  offset="0.8947" style="stop-color:#871BE5"/>
			<stop  offset="0.9103" style="stop-color:#8A15E6"/>
		</linearGradient>
		<path style="fill:url(#SVGID_00000001623181510007339210000013555666757039868570_);" d="M170.6,33.5c-10.5,1.3-20.6,4-30.1,7.9
			c-13-7.1-27-12.4-41.8-15.6c7.1-3.5,24.1-5.1,32.4-5.1C148.7,23.4,155.4,25.4,170.6,33.5z"/>
		
			<linearGradient id="SVGID_00000152975737198270851500000008430060829536026505_" gradientUnits="userSpaceOnUse" x1="1.657" y1="278.7325" x2="121.6583" y2="-8.7123">
			<stop  offset="0.1856" style="stop-color:#19EBCE"/>
			<stop  offset="0.2654" style="stop-color:#21DCD0"/>
			<stop  offset="0.4196" style="stop-color:#36B4D4"/>
			<stop  offset="0.6329" style="stop-color:#5873DB"/>
			<stop  offset="0.8947" style="stop-color:#871BE5"/>
			<stop  offset="0.9103" style="stop-color:#8A15E6"/>
		</linearGradient>
		<path style="fill:url(#SVGID_00000152975737198270851500000008430060829536026505_);" d="M135,43.8c-0.4,0.2-0.7,0.3-1.1,0.5
			c-8,3.9-15.4,8.6-22.3,14c-13.2-3.6-27.1-5.4-41.5-5.4c-3.2,0-6.4,0.1-9.6,0.3c9.5-9.6,35.2-20,47-20.6
			C117.2,35.6,121.9,36.9,135,43.8z"/>
		
			<linearGradient id="SVGID_00000009581415104159233010000014174962780741792415_" gradientUnits="userSpaceOnUse" x1="-11.7905" y1="273.1185" x2="108.2108" y2="-14.3263">
			<stop  offset="0.1856" style="stop-color:#19EBCE"/>
			<stop  offset="0.2654" style="stop-color:#21DCD0"/>
			<stop  offset="0.4196" style="stop-color:#36B4D4"/>
			<stop  offset="0.6329" style="stop-color:#5873DB"/>
			<stop  offset="0.8947" style="stop-color:#871BE5"/>
			<stop  offset="0.9103" style="stop-color:#8A15E6"/>
		</linearGradient>
		<path style="fill:url(#SVGID_00000009581415104159233010000014174962780741792415_);" d="M106.6,62.6c-0.7,0.6-1.4,1.2-2,1.8
			c-0.7,0.7-1.4,1.3-2.1,2c-4.2,4.1-8.1,8.6-11.7,13.3c-21.8,2.5-42.3,9.4-60.5,19.7c6-14.9,31.5-39.1,42.8-41.2
			C78,57.8,94.9,59.8,106.6,62.6z"/>
		
			<linearGradient id="SVGID_00000084515780866093332430000005458626388092258721_" gradientUnits="userSpaceOnUse" x1="-12.9779" y1="272.6228" x2="107.0234" y2="-14.822">
			<stop  offset="0.1856" style="stop-color:#19EBCE"/>
			<stop  offset="0.2654" style="stop-color:#21DCD0"/>
			<stop  offset="0.4196" style="stop-color:#36B4D4"/>
			<stop  offset="0.6329" style="stop-color:#5873DB"/>
			<stop  offset="0.8947" style="stop-color:#871BE5"/>
			<stop  offset="0.9103" style="stop-color:#8A15E6"/>
		</linearGradient>
		<path style="fill:url(#SVGID_00000084515780866093332430000005458626388092258721_);" d="M87.7,84c-0.9,1.4-1.9,2.8-2.7,4.2
			c-0.6,1-1.2,1.9-1.8,2.9c-3,5.1-5.6,10.4-7.8,15.9c-21.1,9.1-39.8,22.6-55.1,39.4c0.5-14.7,18.1-46.3,26.2-49.3
			C46.5,97.2,66.3,86.9,87.7,84z"/>
		
			<linearGradient id="SVGID_00000154396077692326907500000002271333066568177318_" gradientUnits="userSpaceOnUse" x1="-7.0013" y1="275.1179" x2="112.9999" y2="-12.327">
			<stop  offset="0.1856" style="stop-color:#19EBCE"/>
			<stop  offset="0.2654" style="stop-color:#21DCD0"/>
			<stop  offset="0.4196" style="stop-color:#36B4D4"/>
			<stop  offset="0.6329" style="stop-color:#5873DB"/>
			<stop  offset="0.8947" style="stop-color:#871BE5"/>
			<stop  offset="0.9103" style="stop-color:#8A15E6"/>
		</linearGradient>
		<path style="fill:url(#SVGID_00000154396077692326907500000002271333066568177318_);" d="M73,113.6c-0.3,1-0.6,1.9-0.9,2.9
			c-0.3,1-0.6,2.1-0.9,3.1c-1.2,4.5-2.2,9.2-2.9,13.9c-18.1,17.5-32.1,39.2-40.4,63.6c-4.9-14.3-5.9-34.5,4.8-54.9
			C32.8,142,57.1,121.1,73,113.6z"/>
		
			<linearGradient id="SVGID_00000020364922241916956320000016641520562967192199_" gradientUnits="userSpaceOnUse" x1="17.9316" y1="285.5267" x2="137.9328" y2="-1.9181">
			<stop  offset="0.1856" style="stop-color:#19EBCE"/>
			<stop  offset="0.2654" style="stop-color:#21DCD0"/>
			<stop  offset="0.4196" style="stop-color:#36B4D4"/>
			<stop  offset="0.6329" style="stop-color:#5873DB"/>
			<stop  offset="0.8947" style="stop-color:#871BE5"/>
			<stop  offset="0.9103" style="stop-color:#8A15E6"/>
		</linearGradient>
		<path style="fill:url(#SVGID_00000020364922241916956320000016641520562967192199_);" d="M54.9,231.7c0,4.2,0.2,8.4,0.5,12.6
			c-10.5-11.9-18.8-40.1-17.5-55.2c7.8-19.1,20-37.1,29.3-46.9c-0.1,0.9-0.1,1.8-0.2,2.7c-0.1,2-0.2,4-0.2,6.1
			c0,5.8,0.4,11.4,1.2,17C59.6,187.5,54.9,209,54.9,231.7z"/>
		
			<linearGradient id="SVGID_00000136397945942625342570000014700059278090105278_" gradientUnits="userSpaceOnUse" x1="54.0625" y1="300.6105" x2="174.0637" y2="13.1657">
			<stop  offset="0.1856" style="stop-color:#19EBCE"/>
			<stop  offset="0.2654" style="stop-color:#21DCD0"/>
			<stop  offset="0.4196" style="stop-color:#36B4D4"/>
			<stop  offset="0.6329" style="stop-color:#5873DB"/>
			<stop  offset="0.8947" style="stop-color:#871BE5"/>
			<stop  offset="0.9103" style="stop-color:#8A15E6"/>
		</linearGradient>
		<path style="fill:url(#SVGID_00000136397945942625342570000014700059278090105278_);" d="M100.1,278
			c-14.8-7.1-30.8-23.5-39.6-48.5c0,0,1.8-38.4,9-53.6c0,0.2,0.1,0.3,0.1,0.5c0.4,2,0.9,3.9,1.4,5.8c3.8,13.9,10,26.7,18.2,38
			C89.3,240.6,93.1,260.1,100.1,278z"/>
		
			<linearGradient id="SVGID_00000095306121332215787830000017334200882128724123_" gradientUnits="userSpaceOnUse" x1="96.9989" y1="318.5354" x2="217.0001" y2="31.0906">
			<stop  offset="0.1856" style="stop-color:#19EBCE"/>
			<stop  offset="0.2654" style="stop-color:#21DCD0"/>
			<stop  offset="0.4196" style="stop-color:#36B4D4"/>
			<stop  offset="0.6329" style="stop-color:#5873DB"/>
			<stop  offset="0.8947" style="stop-color:#871BE5"/>
			<stop  offset="0.9103" style="stop-color:#8A15E6"/>
		</linearGradient>
		<path style="fill:url(#SVGID_00000095306121332215787830000017334200882128724123_);" d="M151.4,291.2c-16.6-1-34.4-12-48.8-23.3
			c-5.1-8.7-8.3-29.5-9.6-42.8c0.2,0.2,0.4,0.5,0.6,0.7c1.1,1.3,2.2,2.6,3.4,3.9c8.6,9.7,18.8,18,30.2,24.4c0.4,0.2,0.7,0.4,1.1,0.6
			C134.3,268,142.1,280.2,151.4,291.2z"/>
		
			<linearGradient id="SVGID_00000023264278174503951990000013531523574493418678_" gradientUnits="userSpaceOnUse" x1="139.6827" y1="336.3549" x2="259.684" y2="48.9101">
			<stop  offset="0.1856" style="stop-color:#19EBCE"/>
			<stop  offset="0.2654" style="stop-color:#21DCD0"/>
			<stop  offset="0.4196" style="stop-color:#36B4D4"/>
			<stop  offset="0.6329" style="stop-color:#5873DB"/>
			<stop  offset="0.8947" style="stop-color:#871BE5"/>
			<stop  offset="0.9103" style="stop-color:#8A15E6"/>
		</linearGradient>
		<path style="fill:url(#SVGID_00000023264278174503951990000013531523574493418678_);" d="M198.7,286.2c-9.7,3.1-23.1,7.3-49.6-3.7
			c-8.6-10.2-8.9-12.5-14.8-24.6c11.6,5.6,24.3,9.3,37.6,10.8c1.2,0.1,2.4,0.3,3.6,0.4C182.7,275.5,190.4,281.2,198.7,286.2z"/>
		
			<linearGradient id="SVGID_00000103970840532528827190000014313962200722656670_" gradientUnits="userSpaceOnUse" x1="63.1772" y1="304.4157" x2="183.1785" y2="16.9709">
			<stop  offset="0.1856" style="stop-color:#19EBCE"/>
			<stop  offset="0.2654" style="stop-color:#21DCD0"/>
			<stop  offset="0.4196" style="stop-color:#36B4D4"/>
			<stop  offset="0.6329" style="stop-color:#5873DB"/>
			<stop  offset="0.8947" style="stop-color:#871BE5"/>
			<stop  offset="0.9103" style="stop-color:#8A15E6"/>
		</linearGradient>
		<path style="fill:url(#SVGID_00000103970840532528827190000014313962200722656670_);" d="M230.6,41.5c-2.5-1-5-2-7.6-2.8
			c-0.8-0.3-1.6-0.5-2.4-0.8c-10.9-3.4-30.9-5.2-42.9-5.3c-18.3-9.3-30.2-15.2-51.7-16.9c19.9-3.5,35.3-1.4,43.7-0.3
			C187.7,17.6,208,24.4,230.6,41.5z"/>
		
			<linearGradient id="SVGID_00000049193066235155364130000017446962029173292974_" gradientUnits="userSpaceOnUse" x1="177.6431" y1="352.2024" x2="297.6444" y2="64.7576">
			<stop  offset="0.1856" style="stop-color:#19EBCE"/>
			<stop  offset="0.2654" style="stop-color:#21DCD0"/>
			<stop  offset="0.4196" style="stop-color:#36B4D4"/>
			<stop  offset="0.6329" style="stop-color:#5873DB"/>
			<stop  offset="0.8947" style="stop-color:#871BE5"/>
			<stop  offset="0.9103" style="stop-color:#8A15E6"/>
		</linearGradient>
		<path style="fill:url(#SVGID_00000049193066235155364130000017446962029173292974_);" d="M249.5,250.7c-3.2,5.8-29.1,27-52.2,29.9
			c-7.5-4.4-8-5.5-14.5-11.2c0.9,0,1.8,0,2.7,0c3.8,0,7.5-0.2,11.2-0.5c0.3,0,0.7-0.1,1-0.1c8.1-0.8,15.9-2.5,23.4-4.8
			c0.7-0.2,1.3-0.4,2-0.6c2.7-0.9,5.3-1.9,7.9-3C237.4,257.7,243.6,254.5,249.5,250.7z"/>
	</g>
</g>
</svg>
