<?xml version="1.0" encoding="utf-8"?>
<!-- Generator: Adobe Illustrator 26.0.0, SVG Export Plug-In . SVG Version: 6.00 Build 0)  -->
<svg version="1.1" id="Camada_1" xmlns="http://www.w3.org/2000/svg" xmlns:xlink="http://www.w3.org/1999/xlink" x="0px" y="0px"
	 viewBox="0 0 1301.2 445" style="enable-background:new 0 0 1301.2 445;" xml:space="preserve">
<style type="text/css">
	.st0{fill:#1A1A1A;}
	.st1{clip-path:url(#SVGID_00000121991923984839060270000011319335298240314766_);fill:#262626;}
	
		.st2{clip-path:url(#SVGID_00000121991923984839060270000011319335298240314766_);fill:url(#SVGID_00000000223065254055608780000010065926049928179616_);}
	.st3{fill:url(#SVGID_00000051373326281673188490000010614478756638528660_);}
	.st4{fill:url(#SVGID_00000057124814897563333950000009460998006888561805_);}
	.st5{fill:url(#SVGID_00000007412380162106255020000010752921630175155589_);}
	.st6{fill:url(#SVGID_00000109708128196984002510000016063781937506316475_);}
	.st7{fill:url(#SVGID_00000137815076964071951150000017392146461760149637_);}
	.st8{fill:url(#SVGID_00000081606452060055707370000007142785996822334128_);}
	.st9{fill:url(#SVGID_00000094592427564693939620000017577886555335717547_);}
	.st10{fill:url(#SVGID_00000161591235277863211090000017962195219020394687_);}
	.st11{fill:url(#SVGID_00000072979745795124366390000012075411263306885771_);}
	.st12{fill:url(#SVGID_00000063595413045063350080000015904326984608973713_);}
	.st13{fill:url(#SVGID_00000155831894862133338110000005135379062501583233_);}
	.st14{fill:#262626;}
</style>
<g>
	<g>
		<g>
			<circle class="st0" cx="222.5" cy="222.5" r="222.5"/>
			<g>
				<defs>
					<circle id="SVGID_1_" cx="272.8" cy="219.5" r="171.5"/>
				</defs>
				<clipPath id="SVGID_00000041978941114693218330000017810670232933076637_">
					<use xlink:href="#SVGID_1_"  style="overflow:visible;"/>
				</clipPath>
				
					<circle style="clip-path:url(#SVGID_00000041978941114693218330000017810670232933076637_);fill:#262626;" cx="300.5" cy="269.1" r="234.7"/>
				
					<linearGradient id="SVGID_00000015346845091810150900000012591063513751544711_" gradientUnits="userSpaceOnUse" x1="-152.5979" y1="518.5955" x2="832.8461" y2="-180.9102">
					<stop  offset="0.1856" style="stop-color:#19EBCE"/>
					<stop  offset="0.2654" style="stop-color:#21DCD0"/>
					<stop  offset="0.4196" style="stop-color:#36B4D4"/>
					<stop  offset="0.6329" style="stop-color:#5873DB"/>
					<stop  offset="0.8947" style="stop-color:#871BE5"/>
					<stop  offset="0.9103" style="stop-color:#8A15E6"/>
				</linearGradient>
				
					<path style="clip-path:url(#SVGID_00000041978941114693218330000017810670232933076637_);fill:url(#SVGID_00000015346845091810150900000012591063513751544711_);" d="
					M294.9,263.4c17.1,9.9,38.9,21.6,41.9,44.4c22.7-6,56.4-13.2,47.8-33.4c-10.7-46.3-35.4-87.4-53.7-131.1
					c-1.3-3.1-2.3-6.7-2.9-10c-2.2-11.7,2-22.9,3.1-34.8c-4.4,0.6-23.8,0.6-34.9,14.2c-0.3,0.4-2.5-13.6,4.9-28.4
					c-12.3-3.7-108.5,38.2-140.7,121.5c-0.8-19.2,7-52,33.4-88.4c40.8-56.4,107.2-63.9,149.9-54c-7.4-3.2-8.5-5.3-25.5-11.3
					c-10-3.5-24.5-6.3-31-6.3c-117.1-0.3-193,68.9-199.2,191c-4.7,92.8,95.9,155.2,201.5,155.5c36.5,0.1,60.5-16.3,80.3-31.3
					C261.8,345.5,211.8,310.2,261.6,216C256.1,226.5,263.1,245,294.9,263.4z M315.3,161.7c0.1,0.2,0.2,0.3,0.2,0.5
					c0.1-0.1,0.1-0.2,0.2-0.2c9.4,19.1,17.9,36.6,26.5,54.1c-3.1-1.1-6.1-2.5-8.9-4C311.8,200.5,302.8,177.8,315.3,161.7z"/>
			</g>
		</g>
		<g>
			
				<linearGradient id="SVGID_00000156566796950168544440000003956344804990695350_" gradientUnits="userSpaceOnUse" x1="35.3605" y1="425.0289" x2="213.3623" y2="-1.3476">
				<stop  offset="0.1856" style="stop-color:#19EBCE"/>
				<stop  offset="0.2654" style="stop-color:#21DCD0"/>
				<stop  offset="0.4196" style="stop-color:#36B4D4"/>
				<stop  offset="0.6329" style="stop-color:#5873DB"/>
				<stop  offset="0.8947" style="stop-color:#871BE5"/>
				<stop  offset="0.9103" style="stop-color:#8A15E6"/>
			</linearGradient>
			<path style="fill:url(#SVGID_00000156566796950168544440000003956344804990695350_);" d="M249.4,45.9
				c-15.6,1.9-30.6,5.9-44.7,11.7c-19.2-10.5-40.1-18.4-62-23.2c10.5-5.2,35.7-7.5,48-7.5C216.9,31,226.7,34,249.4,45.9z"/>
			
				<linearGradient id="SVGID_00000036209226443122109570000002565412305396127410_" gradientUnits="userSpaceOnUse" x1="-1.2504" y1="409.7448" x2="176.7515" y2="-16.6317">
				<stop  offset="0.1856" style="stop-color:#19EBCE"/>
				<stop  offset="0.2654" style="stop-color:#21DCD0"/>
				<stop  offset="0.4196" style="stop-color:#36B4D4"/>
				<stop  offset="0.6329" style="stop-color:#5873DB"/>
				<stop  offset="0.8947" style="stop-color:#871BE5"/>
				<stop  offset="0.9103" style="stop-color:#8A15E6"/>
			</linearGradient>
			<path style="fill:url(#SVGID_00000036209226443122109570000002565412305396127410_);" d="M196.5,61.2c-0.5,0.3-1.1,0.5-1.6,0.8
				c-11.8,5.7-22.9,12.7-33.1,20.8c-19.6-5.3-40.2-8.1-61.5-8.1c-4.8,0-9.5,0.1-14.2,0.4c14.1-14.2,52.3-29.7,69.7-30.6
				C170.1,49,177.1,51,196.5,61.2z"/>
			
				<linearGradient id="SVGID_00000134250875781396588570000012503294393919492771_" gradientUnits="userSpaceOnUse" x1="-21.1975" y1="401.4173" x2="156.8043" y2="-24.9592">
				<stop  offset="0.1856" style="stop-color:#19EBCE"/>
				<stop  offset="0.2654" style="stop-color:#21DCD0"/>
				<stop  offset="0.4196" style="stop-color:#36B4D4"/>
				<stop  offset="0.6329" style="stop-color:#5873DB"/>
				<stop  offset="0.8947" style="stop-color:#871BE5"/>
				<stop  offset="0.9103" style="stop-color:#8A15E6"/>
			</linearGradient>
			<path style="fill:url(#SVGID_00000134250875781396588570000012503294393919492771_);" d="M154.4,89.1c-1,0.9-2,1.8-3,2.7
				c-1.1,1-2.1,2-3.1,3c-6.3,6.1-12.1,12.7-17.3,19.8c-32.4,3.7-62.8,13.9-89.8,29.3c8.8-22.1,46.8-58,63.5-61.1
				C112,82.1,137,85,154.4,89.1z"/>
			
				<linearGradient id="SVGID_00000077290863197052171290000008094754627802999965_" gradientUnits="userSpaceOnUse" x1="-22.9588" y1="400.682" x2="155.043" y2="-25.6945">
				<stop  offset="0.1856" style="stop-color:#19EBCE"/>
				<stop  offset="0.2654" style="stop-color:#21DCD0"/>
				<stop  offset="0.4196" style="stop-color:#36B4D4"/>
				<stop  offset="0.6329" style="stop-color:#5873DB"/>
				<stop  offset="0.8947" style="stop-color:#871BE5"/>
				<stop  offset="0.9103" style="stop-color:#8A15E6"/>
			</linearGradient>
			<path style="fill:url(#SVGID_00000077290863197052171290000008094754627802999965_);" d="M126.4,120.9c-1.4,2-2.7,4.1-4.1,6.2
				c-0.9,1.4-1.8,2.9-2.6,4.3c-4.4,7.5-8.3,15.4-11.6,23.6c-31.3,13.5-59.1,33.6-81.7,58.5c0.8-21.8,26.8-68.6,38.9-73.1
				C65.3,140.4,94.6,125.2,126.4,120.9z"/>
			
				<linearGradient id="SVGID_00000155835171582295052540000012721435908855678342_" gradientUnits="userSpaceOnUse" x1="-14.0936" y1="404.383" x2="163.9082" y2="-21.9935">
				<stop  offset="0.1856" style="stop-color:#19EBCE"/>
				<stop  offset="0.2654" style="stop-color:#21DCD0"/>
				<stop  offset="0.4196" style="stop-color:#36B4D4"/>
				<stop  offset="0.6329" style="stop-color:#5873DB"/>
				<stop  offset="0.8947" style="stop-color:#871BE5"/>
				<stop  offset="0.9103" style="stop-color:#8A15E6"/>
			</linearGradient>
			<path style="fill:url(#SVGID_00000155835171582295052540000012721435908855678342_);" d="M104.6,164.8c-0.5,1.4-0.9,2.9-1.4,4.3
				c-0.5,1.5-0.9,3.1-1.3,4.6c-1.8,6.7-3.3,13.6-4.3,20.6c-26.9,25.9-47.7,58.1-59.9,94.3c-7.3-21.2-8.7-51.2,7.2-81.4
				C44.9,206.9,81,176,104.6,164.8z"/>
			
				<linearGradient id="SVGID_00000116950706413762795190000010509080663725192843_" gradientUnits="userSpaceOnUse" x1="22.8902" y1="419.8228" x2="200.892" y2="-6.5536">
				<stop  offset="0.1856" style="stop-color:#19EBCE"/>
				<stop  offset="0.2654" style="stop-color:#21DCD0"/>
				<stop  offset="0.4196" style="stop-color:#36B4D4"/>
				<stop  offset="0.6329" style="stop-color:#5873DB"/>
				<stop  offset="0.8947" style="stop-color:#871BE5"/>
				<stop  offset="0.9103" style="stop-color:#8A15E6"/>
			</linearGradient>
			<path style="fill:url(#SVGID_00000116950706413762795190000010509080663725192843_);" d="M77.7,340c0,6.3,0.2,12.5,0.7,18.7
				c-15.6-17.6-27.9-59.5-25.9-81.9c11.6-28.4,29.7-55,43.5-69.5c-0.1,1.3-0.2,2.6-0.2,4c-0.2,3-0.2,6-0.2,9c0,8.6,0.6,17,1.8,25.2
				C84.8,274.4,77.7,306.4,77.7,340z"/>
			
				<linearGradient id="SVGID_00000032622756094067982290000006508633979483887806_" gradientUnits="userSpaceOnUse" x1="76.4844" y1="442.1971" x2="254.4862" y2="15.8206">
				<stop  offset="0.1856" style="stop-color:#19EBCE"/>
				<stop  offset="0.2654" style="stop-color:#21DCD0"/>
				<stop  offset="0.4196" style="stop-color:#36B4D4"/>
				<stop  offset="0.6329" style="stop-color:#5873DB"/>
				<stop  offset="0.8947" style="stop-color:#871BE5"/>
				<stop  offset="0.9103" style="stop-color:#8A15E6"/>
			</linearGradient>
			<path style="fill:url(#SVGID_00000032622756094067982290000006508633979483887806_);" d="M144.8,408.6
				c-22-10.5-45.7-34.9-58.7-71.9c0,0,2.7-57,13.4-79.5c0.1,0.3,0.1,0.5,0.2,0.8c0.6,2.9,1.3,5.8,2.1,8.6
				c5.6,20.5,14.8,39.6,27,56.4C128.8,353.2,134.5,382.1,144.8,408.6z"/>
			
				<linearGradient id="SVGID_00000096028227003908101340000016144353855151135912_" gradientUnits="userSpaceOnUse" x1="140.1734" y1="468.7857" x2="318.1752" y2="42.4092">
				<stop  offset="0.1856" style="stop-color:#19EBCE"/>
				<stop  offset="0.2654" style="stop-color:#21DCD0"/>
				<stop  offset="0.4196" style="stop-color:#36B4D4"/>
				<stop  offset="0.6329" style="stop-color:#5873DB"/>
				<stop  offset="0.8947" style="stop-color:#871BE5"/>
				<stop  offset="0.9103" style="stop-color:#8A15E6"/>
			</linearGradient>
			<path style="fill:url(#SVGID_00000096028227003908101340000016144353855151135912_);" d="M220.9,428.3
				c-24.6-1.5-51-17.9-72.4-34.6c-7.6-13-12.3-43.8-14.2-63.4c0.3,0.3,0.5,0.7,0.8,1c1.6,2,3.3,3.9,5,5.8
				c12.8,14.4,27.9,26.7,44.8,36.2c0.6,0.3,1.1,0.6,1.7,0.9C195.5,393.8,207.1,412,220.9,428.3z"/>
			
				<linearGradient id="SVGID_00000157996414566483263000000006210303174444403346_" gradientUnits="userSpaceOnUse" x1="203.4877" y1="495.2179" x2="381.4896" y2="68.8414">
				<stop  offset="0.1856" style="stop-color:#19EBCE"/>
				<stop  offset="0.2654" style="stop-color:#21DCD0"/>
				<stop  offset="0.4196" style="stop-color:#36B4D4"/>
				<stop  offset="0.6329" style="stop-color:#5873DB"/>
				<stop  offset="0.8947" style="stop-color:#871BE5"/>
				<stop  offset="0.9103" style="stop-color:#8A15E6"/>
			</linearGradient>
			<path style="fill:url(#SVGID_00000157996414566483263000000006210303174444403346_);" d="M291.1,420.7
				c-14.4,4.6-34.2,10.9-73.6-5.4c-12.8-15.1-13.2-18.5-21.9-36.5c17.2,8.2,36,13.8,55.8,16c1.8,0.2,3.5,0.4,5.3,0.5
				C267.2,405,278.7,413.5,291.1,420.7z"/>
			
				<linearGradient id="SVGID_00000026847035943005120270000007059479453725926025_" gradientUnits="userSpaceOnUse" x1="90.0046" y1="447.8415" x2="268.0064" y2="21.465">
				<stop  offset="0.1856" style="stop-color:#19EBCE"/>
				<stop  offset="0.2654" style="stop-color:#21DCD0"/>
				<stop  offset="0.4196" style="stop-color:#36B4D4"/>
				<stop  offset="0.6329" style="stop-color:#5873DB"/>
				<stop  offset="0.8947" style="stop-color:#871BE5"/>
				<stop  offset="0.9103" style="stop-color:#8A15E6"/>
			</linearGradient>
			<path style="fill:url(#SVGID_00000026847035943005120270000007059479453725926025_);" d="M338.4,57.8c-3.7-1.5-7.4-2.9-11.2-4.2
				c-1.2-0.4-2.4-0.8-3.6-1.2c-16.2-5-45.8-7.8-63.6-7.9c-27.1-13.8-44.8-22.6-76.7-25c29.5-5.1,52.3-2,64.8-0.5
				C274.7,22.4,304.8,32.5,338.4,57.8z"/>
			
				<linearGradient id="SVGID_00000109742656234163920780000005592548055849164928_" gradientUnits="userSpaceOnUse" x1="259.7957" y1="518.7252" x2="437.7975" y2="92.3486">
				<stop  offset="0.1856" style="stop-color:#19EBCE"/>
				<stop  offset="0.2654" style="stop-color:#21DCD0"/>
				<stop  offset="0.4196" style="stop-color:#36B4D4"/>
				<stop  offset="0.6329" style="stop-color:#5873DB"/>
				<stop  offset="0.8947" style="stop-color:#871BE5"/>
				<stop  offset="0.9103" style="stop-color:#8A15E6"/>
			</linearGradient>
			<path style="fill:url(#SVGID_00000109742656234163920780000005592548055849164928_);" d="M366.3,368.1
				c-4.7,8.7-43.2,40-77.5,44.4c-11.1-6.5-11.8-8.2-21.4-16.6c1.3,0,2.6,0,3.9,0c5.6,0,11.1-0.3,16.6-0.8c0.5,0,1-0.1,1.5-0.1
				c12-1.2,23.6-3.6,34.7-7.1c1-0.3,1.9-0.6,2.9-0.9c4-1.3,7.9-2.8,11.8-4.4C348.4,378.6,357.6,373.7,366.3,368.1z"/>
		</g>
	</g>
	<g>
		<path class="st14" d="M555.3,282.4V134.1h61.3c4.7,0,9.4,0.6,14.3,1.7c4.8,1.1,9.3,3.4,13.4,6.7c4.1,3.3,7.4,8.3,9.8,14.9
			c2.5,6.6,3.7,15.3,3.7,26.3c0,11-1.3,19.8-3.8,26.5c-2.5,6.7-5.9,11.8-9.9,15.4c-4.1,3.6-8.5,6-13.3,7.2
			c-4.8,1.3-9.3,1.9-13.8,1.9c-2.3,0-5.1-0.1-8.5-0.3c-3.4-0.2-7-0.5-10.6-0.8c-3.7-0.3-7.1-0.7-10.2-1c-3.1-0.3-5.7-0.6-7.5-0.9
			v50.6H555.3z M580,212.3h33.3c3.9,0,7.3-0.9,10.2-2.7c2.9-1.8,5.2-4.8,6.8-8.8c1.6-4.1,2.4-9.7,2.4-16.8c0-7-0.8-12.5-2.5-16.5
			c-1.7-4-3.9-6.9-6.6-8.5c-2.7-1.7-5.9-2.5-9.5-2.5H580V212.3z"/>
		<path class="st14" d="M721.6,283.4c-11.7,0-20.9-1.6-27.8-4.8c-6.9-3.2-11.9-8.8-15-16.8c-3.1-8-4.6-19.1-4.6-33.2
			c0-14.5,1.5-25.7,4.4-33.6c2.9-8,7.8-13.6,14.7-16.8c6.8-3.2,16.1-4.8,27.7-4.8c10.3,0,18.6,1,24.8,3.1c6.2,2.1,10.8,5.8,13.7,11
			c2.9,5.3,4.3,12.8,4.3,22.4c0,6.8-1.3,12.3-4,16.4c-2.7,4.1-6.5,7-11.6,8.7c-5,1.7-10.9,2.6-17.8,2.6h-31.5c0.3,6.7,1.2,12,2.7,16
			c1.5,4,4.4,6.8,8.4,8.5c4.1,1.7,10.1,2.6,18,2.6h32.5v14.7c-5.5,1.1-11.3,2-17.4,2.8C737.1,283,729.9,283.4,721.6,283.4z
			 M698.7,222.5H728c4.7,0,8.1-0.9,10.3-2.7s3.3-5.1,3.3-9.9c0-4.7-0.7-8.4-2-11c-1.3-2.7-3.5-4.6-6.6-5.7
			c-3.1-1.1-7.1-1.7-12.1-1.7c-5.6,0-10,0.9-13.3,2.6c-3.2,1.7-5.5,4.9-6.9,9.3C699.4,207.8,698.7,214.2,698.7,222.5z"/>
		<path class="st14" d="M813.4,332c-6.8,0-12.9-1-18.3-2.9c-5.4-1.9-9.5-4.9-12.6-8.8c-3-4-4.5-8.7-4.5-14.4v-3.8
			c0-5.9,1.7-10.9,5-15c3.3-4.1,7.6-7.2,12.9-9.3c5.2-2.1,10.6-3.2,16.3-3.2l7.2,8.2c-3.3,0-6.4,0.5-9,1.6c-2.7,1.1-4.8,2.7-6.4,4.8
			c-1.6,2.1-2.4,4.8-2.4,8v3.2c0,4.8,1.6,8.3,4.8,10.5s7.8,3.3,13.7,3.3h21.9c6.2,0,11-1.2,14.6-3.5c3.5-2.3,5.3-5.9,5.3-10.7v-3.4
			c0-2.9-0.6-5.4-1.8-7.4c-1.2-2-3.1-3.6-5.8-4.7c-2.7-1.1-6.3-1.7-10.8-1.7h-26.9c-10.7,0-18.8-2.1-24.2-6.2
			c-5.4-4.1-8.1-9.4-8.1-15.7c0-5.4,1.6-9.8,4.7-13.3c3.1-3.5,7.5-5.8,13.2-7c-4.6-2.1-8.1-4.9-10.7-8.2c-2.6-3.3-4.5-7-5.5-10.8
			c-1.1-3.9-1.6-7.8-1.6-11.9c0-8.2,1.7-14.8,5-20c3.3-5.2,8.2-9,14.7-11.5c6.4-2.5,14.4-3.7,23.9-3.7h58.1v13.9l-19.1,2.6
			c1.3,1.3,2.8,2.9,4.3,4.8c1.5,1.9,2.8,4.4,3.9,7.4c1.1,3.1,1.6,7.1,1.6,12.1c0,6-1.2,11.5-3.7,16.5c-2.5,5-6.5,8.9-12.2,11.9
			c-5.6,2.9-13.2,4.4-22.7,4.4h-18.3c-4.3,0-7.8,0.7-10.4,2c-2.7,1.3-4,3.6-4,6.8c0,2.7,1.1,4.6,3.2,5.6c2.1,1.1,4.4,1.6,6.8,1.6
			h31.9c8.2,0,15.1,1.1,20.8,3.2c5.7,2.1,10,5.5,13,10c2.9,4.6,4.4,10.6,4.4,18.1v3.4c0,10.3-3.3,18.4-9.9,24.3
			c-6.6,5.9-16.8,8.8-30.4,8.8H813.4z M823.7,229.3h11.7c5,0,8.8-0.8,11.6-2.3c2.7-1.5,4.6-3.6,5.6-6.2c1-2.6,1.5-5.5,1.5-8.7
			c0-4.6-0.7-8.2-2.1-10.9c-1.4-2.7-3.4-4.7-6-5.9c-2.6-1.2-5.8-1.8-9.5-1.8h-11.2c-6,0-10.6,1.3-13.8,4c-3.1,2.7-4.7,7.2-4.7,13.7
			s1.5,11.1,4.4,14C814,227.9,818.2,229.3,823.7,229.3z"/>
		<path class="st14" d="M922.7,283.6c-8,0-14.6-2.4-19.7-7.2c-5.1-4.8-7.6-11.5-7.6-19.9v-9c0-8.3,2.8-15.1,8.5-20.3
			c5.7-5.2,14.4-7.8,26.2-7.8h30.7v-9.4c0-3.7-0.7-6.9-2-9.4c-1.3-2.5-3.8-4.5-7.2-5.7c-3.5-1.3-8.8-1.9-15.9-1.9h-32.5v-14.5
			c5-1.3,10.8-2.5,17.5-3.5c6.7-1,14.7-1.5,23.9-1.5c8.8-0.1,16.3,0.9,22.5,3.1c6.2,2.2,10.8,5.9,14,10.9c3.1,5.1,4.7,12.1,4.7,20.9
			v74.1h-19.5l-4.2-11.7c-0.9,0.8-2.6,1.9-5,3.2c-2.4,1.3-5.4,2.8-9,4.3c-3.6,1.5-7.6,2.8-12,3.8
			C931.7,283.1,927.3,283.6,922.7,283.6z M934.8,266.1c1.7,0,3.7-0.2,5.9-0.7c2.2-0.5,4.5-1,6.7-1.6c2.3-0.6,4.4-1.2,6.3-1.8
			c1.9-0.6,3.5-1.2,4.8-1.7c1.3-0.5,2-0.9,2.3-1v-28.1l-23.3,1.2c-6.2,0.5-10.6,2.1-13.4,4.8c-2.7,2.7-4.1,6.2-4.1,10.6v4.4
			c0,3.3,0.7,6.1,2.1,8.1c1.4,2.1,3.2,3.5,5.4,4.3C929.8,265.5,932.2,266,934.8,266.1z"/>
		<path class="st14" d="M1049.1,283.6c-3.1,0-6.6-0.1-10.5-0.3c-4-0.2-7.9-0.5-11.9-0.8c-4-0.3-7.6-0.8-10.9-1.3
			c-3.3-0.5-6.1-1.1-8.2-1.8v-14.7h46.4c3.3,0,6.2-0.3,8.5-0.8c2.3-0.5,4.1-1.6,5.3-3.2c1.2-1.6,1.8-4,1.8-7.2v-3.8
			c0-3.3-1.1-6-3.3-7.9c-2.2-1.9-6.1-2.9-11.6-2.9h-16.3c-6.3,0-11.9-0.9-16.8-2.6c-4.9-1.7-8.7-4.7-11.6-8.8
			c-2.8-4.1-4.2-9.8-4.2-16.9v-6c0-6.8,1.3-12.5,3.9-17c2.6-4.5,7-7.9,13.1-10.2c6.1-2.3,14.2-3.5,24.4-3.5c4.3,0,8.9,0.2,13.9,0.6
			c5,0.4,9.7,0.9,14.3,1.5c4.6,0.6,8.2,1.3,10.8,2.1v14.7h-43.8c-5,0-8.7,0.8-11.4,2.5c-2.6,1.7-3.9,4.8-3.9,9.3v3.8
			c0,2.9,0.6,5.2,1.8,6.6c1.2,1.5,3,2.5,5.4,3c2.4,0.5,5.3,0.8,8.6,0.8h16.7c10.6,0,18.4,2.4,23.5,7.2c5.1,4.8,7.6,11.7,7.6,20.5
			v8.8c0,7.2-1.7,12.9-5,17.1c-3.3,4.2-8.1,7.1-14.4,8.7C1065.2,282.7,1057.8,283.6,1049.1,283.6z"/>
		<path class="st14" d="M1140.7,330l12.5-47.6c-5.2,0-9.9-1-14.2-3c-4.2-2-7.8-5-10.7-9c-2.9-4-5.4-9.2-7.2-15.5l-22.1-80.2h25.7
			l19.5,75.1c0.9,3.1,2.1,5.4,3.4,7c1.3,1.6,2.7,2.8,4,3.5c1.3,0.7,2.6,1.2,3.7,1.3c1.1,0.1,1.9,0.2,2.3,0.2l22.3-87.2h25.3
			l-34.6,135.4L1161,330H1140.7z"/>
		<path class="st14" d="M1259.4,283.6c-3.1,0-6.6-0.1-10.5-0.3c-4-0.2-7.9-0.5-11.9-0.8c-4-0.3-7.6-0.8-10.9-1.3
			c-3.3-0.5-6.1-1.1-8.2-1.8v-14.7h46.4c3.3,0,6.2-0.3,8.5-0.8c2.3-0.5,4.1-1.6,5.3-3.2c1.2-1.6,1.8-4,1.8-7.2v-3.8
			c0-3.3-1.1-6-3.3-7.9c-2.2-1.9-6.1-2.9-11.6-2.9h-16.3c-6.3,0-11.9-0.9-16.8-2.6c-4.9-1.7-8.7-4.7-11.6-8.8
			c-2.8-4.1-4.2-9.8-4.2-16.9v-6c0-6.8,1.3-12.5,3.9-17c2.6-4.5,7-7.9,13.1-10.2c6.1-2.3,14.2-3.5,24.4-3.5c4.3,0,8.9,0.2,13.9,0.6
			c5,0.4,9.7,0.9,14.3,1.5c4.6,0.6,8.2,1.3,10.8,2.1v14.7h-43.8c-5,0-8.7,0.8-11.4,2.5c-2.6,1.7-3.9,4.8-3.9,9.3v3.8
			c0,2.9,0.6,5.2,1.8,6.6c1.2,1.5,3,2.5,5.4,3c2.4,0.5,5.3,0.8,8.6,0.8h16.7c10.6,0,18.4,2.4,23.5,7.2c5.1,4.8,7.6,11.7,7.6,20.5
			v8.8c0,7.2-1.7,12.9-5,17.1c-3.3,4.2-8.1,7.1-14.4,8.7C1275.6,282.7,1268.1,283.6,1259.4,283.6z"/>
	</g>
</g>
</svg>
