<?xml version="1.0" encoding="utf-8"?>
<!-- Generator: Adobe Illustrator 26.0.0, SVG Export Plug-In . SVG Version: 6.00 Build 0)  -->
<svg version="1.1" id="Camada_1" xmlns="http://www.w3.org/2000/svg" xmlns:xlink="http://www.w3.org/1999/xlink" x="0px" y="0px"
	 viewBox="0 0 745.9 672" style="enable-background:new 0 0 745.9 672;" xml:space="preserve">
<style type="text/css">
	.st0{fill:#1A1A1A;}
	.st1{clip-path:url(#SVGID_00000063596473438516433870000003347605322330285447_);fill:#262626;}
	
		.st2{clip-path:url(#SVGID_00000063596473438516433870000003347605322330285447_);fill:url(#SVGID_00000173881110187057181860000018023846680309559223_);}
	.st3{fill:url(#SVGID_00000013892122567582677670000004065214024534331301_);}
	.st4{fill:url(#SVGID_00000080901399637229557650000006009269791552673960_);}
	.st5{fill:url(#SVGID_00000008121398736216304180000000730279204201866136_);}
	.st6{fill:url(#SVGID_00000165914255036420276760000016972828368253745305_);}
	.st7{fill:url(#SVGID_00000117672132717691203690000010381827481436135349_);}
	.st8{fill:url(#SVGID_00000044871286892658881360000000047378790370173329_);}
	.st9{fill:url(#SVGID_00000062186908247049431270000009409910553393127055_);}
	.st10{fill:url(#SVGID_00000090984020715327013970000017222706039420293511_);}
	.st11{fill:url(#SVGID_00000156551490408299298100000009387176698436860043_);}
	.st12{fill:url(#SVGID_00000019678404182838401990000016257131591964302980_);}
	.st13{fill:url(#SVGID_00000000938165238588031100000004971046170255116423_);}
	.st14{fill:#262626;}
</style>
<g>
	<g>
		<g>
			<circle class="st0" cx="370" cy="222.5" r="222.5"/>
			<g>
				<defs>
					<circle id="SVGID_1_" cx="420.3" cy="219.5" r="171.5"/>
				</defs>
				<clipPath id="SVGID_00000129176229575194777490000001822502504552142747_">
					<use xlink:href="#SVGID_1_"  style="overflow:visible;"/>
				</clipPath>
				
					<circle style="clip-path:url(#SVGID_00000129176229575194777490000001822502504552142747_);fill:#262626;" cx="448" cy="269.1" r="234.7"/>
				
					<linearGradient id="SVGID_00000049200487459799303540000013588954238307807646_" gradientUnits="userSpaceOnUse" x1="-5.0577" y1="518.5955" x2="980.3864" y2="-180.9102">
					<stop  offset="0.1856" style="stop-color:#19EBCE"/>
					<stop  offset="0.2654" style="stop-color:#21DCD0"/>
					<stop  offset="0.4196" style="stop-color:#36B4D4"/>
					<stop  offset="0.6329" style="stop-color:#5873DB"/>
					<stop  offset="0.8947" style="stop-color:#871BE5"/>
					<stop  offset="0.9103" style="stop-color:#8A15E6"/>
				</linearGradient>
				
					<path style="clip-path:url(#SVGID_00000129176229575194777490000001822502504552142747_);fill:url(#SVGID_00000049200487459799303540000013588954238307807646_);" d="
					M442.4,263.4c17.1,9.9,38.9,21.6,41.9,44.4c22.7-6,56.4-13.2,47.8-33.4c-10.7-46.3-35.4-87.4-53.7-131.1
					c-1.3-3.1-2.3-6.7-2.9-10c-2.2-11.7,2-22.9,3.1-34.8c-4.4,0.6-23.8,0.6-34.9,14.2c-0.3,0.4-2.5-13.6,4.9-28.4
					c-12.3-3.7-108.5,38.2-140.7,121.5c-0.8-19.2,7-52,33.4-88.4c40.8-56.4,107.2-63.9,149.9-54c-7.4-3.2-8.5-5.3-25.5-11.3
					c-10-3.5-24.5-6.3-31-6.3c-117.1-0.3-193,68.9-199.2,191c-4.7,92.8,95.9,155.2,201.5,155.5c36.5,0.1,60.5-16.3,80.3-31.3
					C409.4,345.5,359.3,310.2,409.2,216C403.6,226.5,410.6,245,442.4,263.4z M462.9,161.7c0.1,0.2,0.2,0.3,0.2,0.5
					c0.1-0.1,0.1-0.2,0.2-0.2c9.4,19.1,17.9,36.6,26.5,54.1c-3.1-1.1-6.1-2.5-8.9-4C459.3,200.5,450.3,177.8,462.9,161.7z"/>
			</g>
		</g>
		<g>
			
				<linearGradient id="SVGID_00000162319928870475485510000002896304071910794638_" gradientUnits="userSpaceOnUse" x1="182.9007" y1="425.0289" x2="360.9025" y2="-1.3476">
				<stop  offset="0.1856" style="stop-color:#19EBCE"/>
				<stop  offset="0.2654" style="stop-color:#21DCD0"/>
				<stop  offset="0.4196" style="stop-color:#36B4D4"/>
				<stop  offset="0.6329" style="stop-color:#5873DB"/>
				<stop  offset="0.8947" style="stop-color:#871BE5"/>
				<stop  offset="0.9103" style="stop-color:#8A15E6"/>
			</linearGradient>
			<path style="fill:url(#SVGID_00000162319928870475485510000002896304071910794638_);" d="M396.9,45.9
				c-15.6,1.9-30.6,5.9-44.7,11.7c-19.2-10.5-40.1-18.4-62-23.2c10.5-5.2,35.7-7.5,48-7.5C364.5,31,374.3,34,396.9,45.9z"/>
			
				<linearGradient id="SVGID_00000164492255661615430090000000793620832554554046_" gradientUnits="userSpaceOnUse" x1="146.2898" y1="409.7448" x2="324.2917" y2="-16.6317">
				<stop  offset="0.1856" style="stop-color:#19EBCE"/>
				<stop  offset="0.2654" style="stop-color:#21DCD0"/>
				<stop  offset="0.4196" style="stop-color:#36B4D4"/>
				<stop  offset="0.6329" style="stop-color:#5873DB"/>
				<stop  offset="0.8947" style="stop-color:#871BE5"/>
				<stop  offset="0.9103" style="stop-color:#8A15E6"/>
			</linearGradient>
			<path style="fill:url(#SVGID_00000164492255661615430090000000793620832554554046_);" d="M344.1,61.2c-0.5,0.3-1.1,0.5-1.6,0.8
				c-11.8,5.7-22.9,12.7-33.1,20.8c-19.6-5.3-40.2-8.1-61.5-8.1c-4.8,0-9.5,0.1-14.2,0.4c14.1-14.2,52.3-29.7,69.7-30.6
				C317.7,49,324.7,51,344.1,61.2z"/>
			
				<linearGradient id="SVGID_00000156587845341759926840000012629411728891853462_" gradientUnits="userSpaceOnUse" x1="126.3427" y1="401.4173" x2="304.3445" y2="-24.9592">
				<stop  offset="0.1856" style="stop-color:#19EBCE"/>
				<stop  offset="0.2654" style="stop-color:#21DCD0"/>
				<stop  offset="0.4196" style="stop-color:#36B4D4"/>
				<stop  offset="0.6329" style="stop-color:#5873DB"/>
				<stop  offset="0.8947" style="stop-color:#871BE5"/>
				<stop  offset="0.9103" style="stop-color:#8A15E6"/>
			</linearGradient>
			<path style="fill:url(#SVGID_00000156587845341759926840000012629411728891853462_);" d="M301.9,89.1c-1,0.9-2,1.8-3,2.7
				c-1.1,1-2.1,2-3.1,3c-6.3,6.1-12.1,12.7-17.3,19.8c-32.4,3.7-62.8,13.9-89.8,29.3c8.8-22.1,46.8-58,63.5-61.1
				C259.6,82.1,284.6,85,301.9,89.1z"/>
			
				<linearGradient id="SVGID_00000041267970659380106920000007622100925718036895_" gradientUnits="userSpaceOnUse" x1="124.5814" y1="400.682" x2="302.5832" y2="-25.6945">
				<stop  offset="0.1856" style="stop-color:#19EBCE"/>
				<stop  offset="0.2654" style="stop-color:#21DCD0"/>
				<stop  offset="0.4196" style="stop-color:#36B4D4"/>
				<stop  offset="0.6329" style="stop-color:#5873DB"/>
				<stop  offset="0.8947" style="stop-color:#871BE5"/>
				<stop  offset="0.9103" style="stop-color:#8A15E6"/>
			</linearGradient>
			<path style="fill:url(#SVGID_00000041267970659380106920000007622100925718036895_);" d="M273.9,120.9c-1.4,2-2.7,4.1-4.1,6.2
				c-0.9,1.4-1.8,2.9-2.6,4.3c-4.4,7.5-8.3,15.4-11.6,23.6c-31.3,13.5-59.1,33.6-81.7,58.5c0.8-21.8,26.8-68.6,38.9-73.1
				C212.8,140.4,242.1,125.2,273.9,120.9z"/>
			
				<linearGradient id="SVGID_00000171686608911913391040000005912154474406942877_" gradientUnits="userSpaceOnUse" x1="133.4466" y1="404.383" x2="311.4485" y2="-21.9935">
				<stop  offset="0.1856" style="stop-color:#19EBCE"/>
				<stop  offset="0.2654" style="stop-color:#21DCD0"/>
				<stop  offset="0.4196" style="stop-color:#36B4D4"/>
				<stop  offset="0.6329" style="stop-color:#5873DB"/>
				<stop  offset="0.8947" style="stop-color:#871BE5"/>
				<stop  offset="0.9103" style="stop-color:#8A15E6"/>
			</linearGradient>
			<path style="fill:url(#SVGID_00000171686608911913391040000005912154474406942877_);" d="M252.1,164.8c-0.5,1.4-0.9,2.9-1.4,4.3
				c-0.5,1.5-0.9,3.1-1.3,4.6c-1.8,6.7-3.3,13.6-4.3,20.6c-26.9,25.9-47.7,58.1-59.9,94.3c-7.3-21.2-8.7-51.2,7.2-81.4
				C192.5,206.9,228.5,176,252.1,164.8z"/>
			
				<linearGradient id="SVGID_00000078752803221092249690000001250797956353388462_" gradientUnits="userSpaceOnUse" x1="170.4304" y1="419.8228" x2="348.4323" y2="-6.5536">
				<stop  offset="0.1856" style="stop-color:#19EBCE"/>
				<stop  offset="0.2654" style="stop-color:#21DCD0"/>
				<stop  offset="0.4196" style="stop-color:#36B4D4"/>
				<stop  offset="0.6329" style="stop-color:#5873DB"/>
				<stop  offset="0.8947" style="stop-color:#871BE5"/>
				<stop  offset="0.9103" style="stop-color:#8A15E6"/>
			</linearGradient>
			<path style="fill:url(#SVGID_00000078752803221092249690000001250797956353388462_);" d="M225.3,340c0,6.3,0.2,12.5,0.7,18.7
				c-15.6-17.6-27.9-59.5-25.9-81.9c11.6-28.4,29.7-55,43.5-69.5c-0.1,1.3-0.2,2.6-0.2,4c-0.2,3-0.2,6-0.2,9c0,8.6,0.6,17,1.8,25.2
				C232.3,274.4,225.3,306.4,225.3,340z"/>
			
				<linearGradient id="SVGID_00000044890050985229887280000017230867615212079032_" gradientUnits="userSpaceOnUse" x1="224.0246" y1="442.1971" x2="402.0264" y2="15.8206">
				<stop  offset="0.1856" style="stop-color:#19EBCE"/>
				<stop  offset="0.2654" style="stop-color:#21DCD0"/>
				<stop  offset="0.4196" style="stop-color:#36B4D4"/>
				<stop  offset="0.6329" style="stop-color:#5873DB"/>
				<stop  offset="0.8947" style="stop-color:#871BE5"/>
				<stop  offset="0.9103" style="stop-color:#8A15E6"/>
			</linearGradient>
			<path style="fill:url(#SVGID_00000044890050985229887280000017230867615212079032_);" d="M292.3,408.6
				c-22-10.5-45.7-34.9-58.7-71.9c0,0,2.7-57,13.4-79.5c0.1,0.3,0.1,0.5,0.2,0.8c0.6,2.9,1.3,5.8,2.1,8.6
				c5.6,20.5,14.8,39.6,27,56.4C276.3,353.2,282,382.1,292.3,408.6z"/>
			
				<linearGradient id="SVGID_00000126281454848325901980000008231331364657964704_" gradientUnits="userSpaceOnUse" x1="287.7136" y1="468.7857" x2="465.7154" y2="42.4092">
				<stop  offset="0.1856" style="stop-color:#19EBCE"/>
				<stop  offset="0.2654" style="stop-color:#21DCD0"/>
				<stop  offset="0.4196" style="stop-color:#36B4D4"/>
				<stop  offset="0.6329" style="stop-color:#5873DB"/>
				<stop  offset="0.8947" style="stop-color:#871BE5"/>
				<stop  offset="0.9103" style="stop-color:#8A15E6"/>
			</linearGradient>
			<path style="fill:url(#SVGID_00000126281454848325901980000008231331364657964704_);" d="M368.4,428.3
				c-24.6-1.5-51-17.9-72.4-34.6c-7.6-13-12.3-43.8-14.2-63.4c0.3,0.3,0.5,0.7,0.8,1c1.6,2,3.3,3.9,5,5.8
				c12.8,14.4,27.9,26.7,44.8,36.2c0.6,0.3,1.1,0.6,1.7,0.9C343,393.8,354.6,412,368.4,428.3z"/>
			
				<linearGradient id="SVGID_00000106858510303512528310000001618181351748480654_" gradientUnits="userSpaceOnUse" x1="351.028" y1="495.2179" x2="529.0298" y2="68.8414">
				<stop  offset="0.1856" style="stop-color:#19EBCE"/>
				<stop  offset="0.2654" style="stop-color:#21DCD0"/>
				<stop  offset="0.4196" style="stop-color:#36B4D4"/>
				<stop  offset="0.6329" style="stop-color:#5873DB"/>
				<stop  offset="0.8947" style="stop-color:#871BE5"/>
				<stop  offset="0.9103" style="stop-color:#8A15E6"/>
			</linearGradient>
			<path style="fill:url(#SVGID_00000106858510303512528310000001618181351748480654_);" d="M438.6,420.7
				c-14.4,4.6-34.2,10.9-73.6-5.4c-12.8-15.1-13.2-18.5-21.9-36.5c17.2,8.2,36,13.8,55.8,16c1.8,0.2,3.5,0.4,5.3,0.5
				C414.8,405,426.3,413.5,438.6,420.7z"/>
			
				<linearGradient id="SVGID_00000063605650750770262900000009114631514461287325_" gradientUnits="userSpaceOnUse" x1="237.5448" y1="447.8415" x2="415.5466" y2="21.465">
				<stop  offset="0.1856" style="stop-color:#19EBCE"/>
				<stop  offset="0.2654" style="stop-color:#21DCD0"/>
				<stop  offset="0.4196" style="stop-color:#36B4D4"/>
				<stop  offset="0.6329" style="stop-color:#5873DB"/>
				<stop  offset="0.8947" style="stop-color:#871BE5"/>
				<stop  offset="0.9103" style="stop-color:#8A15E6"/>
			</linearGradient>
			<path style="fill:url(#SVGID_00000063605650750770262900000009114631514461287325_);" d="M485.9,57.8c-3.7-1.5-7.4-2.9-11.2-4.2
				c-1.2-0.4-2.4-0.8-3.6-1.2c-16.2-5-45.8-7.8-63.6-7.9c-27.1-13.8-44.8-22.6-76.7-25c29.5-5.1,52.3-2,64.8-0.5
				C422.3,22.4,452.4,32.5,485.9,57.8z"/>
			
				<linearGradient id="SVGID_00000020387587598426105010000007879493704015549852_" gradientUnits="userSpaceOnUse" x1="407.3359" y1="518.7252" x2="585.3377" y2="92.3486">
				<stop  offset="0.1856" style="stop-color:#19EBCE"/>
				<stop  offset="0.2654" style="stop-color:#21DCD0"/>
				<stop  offset="0.4196" style="stop-color:#36B4D4"/>
				<stop  offset="0.6329" style="stop-color:#5873DB"/>
				<stop  offset="0.8947" style="stop-color:#871BE5"/>
				<stop  offset="0.9103" style="stop-color:#8A15E6"/>
			</linearGradient>
			<path style="fill:url(#SVGID_00000020387587598426105010000007879493704015549852_);" d="M513.9,368.1
				c-4.7,8.7-43.2,40-77.5,44.4c-11.1-6.5-11.8-8.2-21.4-16.6c1.3,0,2.6,0,3.9,0c5.6,0,11.1-0.3,16.6-0.8c0.5,0,1-0.1,1.5-0.1
				c12-1.2,23.6-3.6,34.7-7.1c1-0.3,1.9-0.6,2.9-0.9c4-1.3,7.9-2.8,11.8-4.4C495.9,378.6,505.2,373.7,513.9,368.1z"/>
		</g>
	</g>
	<g>
		<path class="st14" d="M0,622.4V474.1h61.3c4.7,0,9.4,0.6,14.3,1.7c4.8,1.1,9.3,3.4,13.4,6.7c4.1,3.3,7.4,8.3,9.8,14.9
			c2.5,6.6,3.7,15.3,3.7,26.3c0,11-1.3,19.8-3.8,26.5c-2.5,6.7-5.9,11.8-9.9,15.4c-4.1,3.6-8.5,6-13.3,7.2
			c-4.8,1.3-9.3,1.9-13.8,1.9c-2.3,0-5.1-0.1-8.5-0.3s-7-0.5-10.6-0.8c-3.7-0.3-7.1-0.7-10.2-1c-3.1-0.3-5.7-0.6-7.5-0.9v50.6H0z
			 M24.7,552.3h33.3c3.9,0,7.3-0.9,10.2-2.7c2.9-1.8,5.2-4.8,6.8-8.8c1.6-4.1,2.4-9.7,2.4-16.8c0-7-0.8-12.5-2.5-16.5
			c-1.7-4-3.9-6.9-6.6-8.5c-2.7-1.7-5.9-2.5-9.5-2.5H24.7V552.3z"/>
		<path class="st14" d="M166.3,623.4c-11.7,0-20.9-1.6-27.8-4.8c-6.9-3.2-11.9-8.8-15-16.8c-3.1-8-4.6-19.1-4.6-33.2
			c0-14.5,1.5-25.7,4.4-33.6c2.9-8,7.8-13.6,14.7-16.8c6.8-3.2,16.1-4.8,27.7-4.8c10.3,0,18.6,1,24.8,3.1c6.2,2.1,10.8,5.8,13.7,11
			c2.9,5.3,4.3,12.8,4.3,22.4c0,6.8-1.3,12.3-4,16.4c-2.7,4.1-6.5,7-11.6,8.7c-5,1.7-10.9,2.6-17.8,2.6h-31.5c0.3,6.7,1.2,12,2.7,16
			c1.5,4,4.4,6.8,8.4,8.5c4.1,1.7,10.1,2.6,18,2.6h32.5v14.7c-5.5,1.1-11.3,2-17.4,2.8C181.8,623,174.6,623.4,166.3,623.4z
			 M143.4,562.5h29.3c4.7,0,8.1-0.9,10.3-2.7s3.3-5.1,3.3-9.9c0-4.7-0.7-8.4-2-11c-1.3-2.7-3.5-4.6-6.6-5.7
			c-3.1-1.1-7.1-1.7-12.1-1.7c-5.6,0-10,0.9-13.3,2.6c-3.2,1.7-5.5,4.9-6.9,9.3C144.1,547.8,143.4,554.2,143.4,562.5z"/>
		<path class="st14" d="M258.1,672c-6.8,0-12.9-1-18.3-2.9c-5.4-1.9-9.5-4.9-12.6-8.8c-3-4-4.5-8.7-4.5-14.4v-3.8
			c0-5.9,1.7-10.9,5-15c3.3-4.1,7.6-7.2,12.9-9.3c5.2-2.1,10.6-3.2,16.3-3.2l7.2,8.2c-3.3,0-6.4,0.5-9,1.6c-2.7,1.1-4.8,2.7-6.4,4.8
			c-1.6,2.1-2.4,4.8-2.4,8v3.2c0,4.8,1.6,8.3,4.8,10.5c3.2,2.2,7.8,3.3,13.7,3.3h21.9c6.2,0,11-1.2,14.6-3.5
			c3.5-2.3,5.3-5.9,5.3-10.7v-3.4c0-2.9-0.6-5.4-1.8-7.4c-1.2-2-3.1-3.6-5.8-4.7c-2.7-1.1-6.3-1.7-10.8-1.7h-26.9
			c-10.7,0-18.8-2.1-24.2-6.2c-5.4-4.1-8.1-9.4-8.1-15.7c0-5.4,1.6-9.8,4.7-13.3c3.1-3.5,7.5-5.8,13.2-7c-4.6-2.1-8.1-4.9-10.7-8.2
			c-2.6-3.3-4.5-7-5.5-10.8c-1.1-3.9-1.6-7.8-1.6-11.9c0-8.2,1.7-14.8,5-20c3.3-5.2,8.2-9,14.7-11.5c6.4-2.5,14.4-3.7,23.9-3.7h58.1
			v13.9l-19.1,2.6c1.3,1.3,2.8,2.9,4.3,4.8c1.5,1.9,2.8,4.4,3.9,7.4c1.1,3.1,1.6,7.1,1.6,12.1c0,6-1.2,11.5-3.7,16.5
			c-2.5,5-6.5,8.9-12.2,11.9c-5.6,2.9-13.2,4.4-22.7,4.4h-18.3c-4.3,0-7.8,0.7-10.4,2c-2.7,1.3-4,3.6-4,6.8c0,2.7,1.1,4.6,3.2,5.6
			c2.1,1.1,4.4,1.6,6.8,1.6h31.9c8.2,0,15.1,1.1,20.8,3.2c5.7,2.1,10,5.5,13,10c2.9,4.6,4.4,10.6,4.4,18.1v3.4
			c0,10.3-3.3,18.4-9.9,24.3c-6.6,5.9-16.8,8.8-30.4,8.8H258.1z M268.4,569.3H280c5,0,8.8-0.8,11.6-2.3c2.7-1.5,4.6-3.6,5.6-6.2
			c1-2.6,1.5-5.5,1.5-8.7c0-4.6-0.7-8.2-2.1-10.9c-1.4-2.7-3.4-4.7-6-5.9c-2.6-1.2-5.8-1.8-9.5-1.8h-11.2c-6,0-10.6,1.3-13.8,4
			c-3.1,2.7-4.7,7.2-4.7,13.7c0,6.4,1.5,11.1,4.4,14C258.7,567.9,262.9,569.3,268.4,569.3z"/>
		<path class="st14" d="M367.4,623.6c-8,0-14.6-2.4-19.7-7.2c-5.1-4.8-7.6-11.5-7.6-19.9v-9c0-8.3,2.8-15.1,8.5-20.3
			c5.7-5.2,14.4-7.8,26.2-7.8h30.7v-9.4c0-3.7-0.7-6.9-2-9.4c-1.3-2.5-3.8-4.5-7.2-5.7c-3.5-1.3-8.8-1.9-15.9-1.9h-32.5v-14.5
			c5-1.3,10.8-2.5,17.5-3.5c6.7-1,14.7-1.5,23.9-1.5c8.8-0.1,16.3,0.9,22.5,3.1c6.2,2.2,10.8,5.9,14,10.9c3.1,5.1,4.7,12.1,4.7,20.9
			v74.1H411l-4.2-11.7c-0.9,0.8-2.6,1.9-5,3.2c-2.4,1.3-5.4,2.8-9,4.3c-3.6,1.5-7.6,2.8-12,3.8C376.4,623.1,372,623.6,367.4,623.6z
			 M379.5,606.1c1.7,0,3.7-0.2,5.9-0.7c2.2-0.5,4.5-1,6.7-1.6c2.3-0.6,4.4-1.2,6.3-1.8c1.9-0.6,3.5-1.2,4.8-1.7c1.3-0.5,2-0.9,2.3-1
			v-28.1l-23.3,1.2c-6.2,0.5-10.6,2.1-13.4,4.8c-2.7,2.7-4.1,6.2-4.1,10.6v4.4c0,3.3,0.7,6.1,2.1,8.1c1.4,2.1,3.2,3.5,5.4,4.3
			C374.6,605.5,376.9,606,379.5,606.1z"/>
		<path class="st14" d="M493.8,623.6c-3.1,0-6.6-0.1-10.5-0.3c-4-0.2-7.9-0.5-11.9-0.8c-4-0.3-7.6-0.8-10.9-1.3
			c-3.3-0.5-6.1-1.1-8.2-1.8v-14.7h46.4c3.3,0,6.2-0.3,8.5-0.8c2.3-0.5,4.1-1.6,5.3-3.2c1.2-1.6,1.8-4,1.8-7.2v-3.8
			c0-3.3-1.1-6-3.3-7.9c-2.2-1.9-6.1-2.9-11.6-2.9h-16.3c-6.3,0-11.9-0.9-16.8-2.6c-4.9-1.7-8.7-4.7-11.6-8.8
			c-2.8-4.1-4.2-9.8-4.2-16.9v-6c0-6.8,1.3-12.5,3.9-17c2.6-4.5,7-7.9,13.1-10.2c6.1-2.3,14.2-3.5,24.4-3.5c4.3,0,8.9,0.2,13.9,0.6
			c5,0.4,9.7,0.9,14.3,1.5c4.6,0.6,8.2,1.3,10.8,2.1v14.7h-43.8c-5,0-8.7,0.8-11.4,2.5c-2.6,1.7-3.9,4.8-3.9,9.3v3.8
			c0,2.9,0.6,5.2,1.8,6.6c1.2,1.5,3,2.5,5.4,3c2.4,0.5,5.3,0.8,8.6,0.8h16.7c10.6,0,18.4,2.4,23.5,7.2c5.1,4.8,7.6,11.7,7.6,20.5
			v8.8c0,7.2-1.7,12.9-5,17.1c-3.3,4.2-8.1,7.1-14.4,8.7S502.5,623.6,493.8,623.6z"/>
		<path class="st14" d="M585.4,670l12.5-47.6c-5.2,0-9.9-1-14.2-3s-7.8-5-10.7-9c-2.9-4-5.4-9.2-7.2-15.5l-22.1-80.2h25.7l19.5,75.1
			c0.9,3.1,2.1,5.4,3.4,7c1.3,1.6,2.7,2.8,4,3.5c1.3,0.7,2.6,1.2,3.7,1.3c1.1,0.1,1.9,0.2,2.3,0.2l22.3-87.2h25.3l-34.6,135.4
			l-9.6,19.9H585.4z"/>
		<path class="st14" d="M704.1,623.6c-3.1,0-6.6-0.1-10.5-0.3c-4-0.2-7.9-0.5-11.9-0.8c-4-0.3-7.6-0.8-10.9-1.3
			c-3.3-0.5-6.1-1.1-8.2-1.8v-14.7h46.4c3.3,0,6.2-0.3,8.5-0.8c2.3-0.5,4.1-1.6,5.3-3.2s1.8-4,1.8-7.2v-3.8c0-3.3-1.1-6-3.3-7.9
			c-2.2-1.9-6.1-2.9-11.6-2.9h-16.3c-6.3,0-11.9-0.9-16.8-2.6c-4.9-1.7-8.7-4.7-11.6-8.8c-2.8-4.1-4.2-9.8-4.2-16.9v-6
			c0-6.8,1.3-12.5,3.9-17c2.6-4.5,7-7.9,13.1-10.2c6.1-2.3,14.2-3.5,24.4-3.5c4.3,0,8.9,0.2,13.9,0.6c5,0.4,9.7,0.9,14.3,1.5
			c4.6,0.6,8.2,1.3,10.8,2.1v14.7h-43.8c-5,0-8.7,0.8-11.4,2.5c-2.6,1.7-3.9,4.8-3.9,9.3v3.8c0,2.9,0.6,5.2,1.8,6.6
			c1.2,1.5,3,2.5,5.4,3c2.4,0.5,5.3,0.8,8.6,0.8h16.7c10.6,0,18.4,2.4,23.5,7.2c5.1,4.8,7.6,11.7,7.6,20.5v8.8
			c0,7.2-1.7,12.9-5,17.1c-3.3,4.2-8.1,7.1-14.4,8.7C720.3,622.7,712.8,623.6,704.1,623.6z"/>
	</g>
</g>
</svg>
